<svg width="201" height="605" viewBox="0 0 201 605" fill="none" xmlns="http://www.w3.org/2000/svg">
<path d="M37.359 164.08L3.64883 137.861C2.75003 137.162 2.61539 135.854 3.35284 134.987L10.3227 126.787C11.0074 125.981 12.2008 125.848 13.0466 126.482L47.4615 152.293" stroke="#EFB546" stroke-width="5" stroke-linecap="round"/>
<path d="M47.9743 160.126L43.5204 166.436C42.9005 167.314 43.0856 168.525 43.9394 169.178L60.955 182.19C61.3038 182.457 61.7308 182.601 62.1699 182.601H76.1194C78.0553 182.601 78.8618 180.125 77.2973 178.985L50.7862 159.663C49.884 159.006 48.6181 159.214 47.9743 160.126Z" stroke="#EFB546" stroke-width="5" stroke-linecap="round"/>
<path d="M47.7484 149.538L34.0737 166.513C33.4006 167.349 33.5067 168.567 34.3142 169.273L35.7644 170.542C36.6298 171.299 37.9541 171.172 38.6601 170.265L51.9903 153.126C52.6095 152.33 52.539 151.197 51.8258 150.484L50.7201 149.378C49.8791 148.537 48.4945 148.612 47.7484 149.538Z" fill="#EFB546" stroke="#EFB546" stroke-width="5" stroke-linecap="round"/>
<path d="M163.641 164.08L197.351 137.861C198.25 137.162 198.385 135.854 197.647 134.987L190.677 126.787C189.993 125.981 188.799 125.848 187.953 126.482L153.538 152.293" stroke="#EFB546" stroke-width="5" stroke-linecap="round"/>
<path d="M153.026 160.126L157.48 166.436C158.099 167.314 157.914 168.525 157.061 169.178L140.045 182.19C139.696 182.457 139.269 182.601 138.83 182.601H124.881C122.945 182.601 122.138 180.125 123.703 178.985L150.214 159.663C151.116 159.006 152.382 159.214 153.026 160.126Z" stroke="#EFB546" stroke-width="5" stroke-linecap="round"/>
<path d="M153.252 149.538L166.926 166.513C167.599 167.349 167.493 168.567 166.686 169.273L165.236 170.542C164.37 171.299 163.046 171.172 162.34 170.265L149.01 153.126C148.39 152.33 148.461 151.197 149.174 150.484L150.28 149.378C151.121 148.537 152.506 148.612 153.252 149.538Z" fill="#EFB546" stroke="#EFB546" stroke-width="5" stroke-linecap="round"/>
<path d="M41.8489 80.453C25.0113 88.3106 27.2564 107.393 47.4614 107.393M158.029 80.453C170.376 87.188 168.131 111.322 151.855 107.393" stroke="#EFB546" stroke-width="5" stroke-linecap="round"/>
<path d="M83.9431 23.2051L70.8132 7.95757C69.1386 6.01292 70.5202 3 73.0865 3H117.792C120.264 3 121.675 5.82229 120.192 7.8L108.638 23.2051" stroke="#EFB546" stroke-width="5" stroke-linecap="round"/>
<path d="M46.9005 63.0541L76.647 45.6553L97.4133 63.0541L124.915 45.6553L150.732 63.0541" stroke="#EFB546" stroke-width="5" stroke-linecap="round"/>
<path d="M85.0654 140.507V182.04H114.812V140.507" stroke="#EFB546" stroke-width="5" stroke-linecap="round"/>
<path fill-rule="evenodd" clip-rule="evenodd" d="M68.2276 184.285C68.2276 182.735 66.9712 181.479 65.4213 181.479C63.8715 181.479 62.6151 182.735 62.6151 184.285V422.818C62.6151 424.367 63.8715 425.624 65.4213 425.624C66.9712 425.624 68.2276 424.367 68.2276 422.818V314.445L97.0316 371.953L74.0984 421.642C73.4489 423.049 74.0632 424.716 75.4704 425.366C76.8776 426.015 78.5449 425.401 79.1944 423.994L99.7807 379.39L117.908 428.43H133.894V181.479H116.813L96.8471 233.39L78.5973 184.285H68.2276ZM98.6059 238.123L128.282 297.557V187.091H120.668L98.6059 238.123ZM128.282 307.544C94.3754 239.808 93.3547 238.123 74.6955 189.897H69.3501V302.315L102.204 369.759L103.018 371.96L124.487 422.818H128.282V307.544Z" fill="#EFB546"/>
<rect x="28.4505" y="182.672" width="139.048" height="242.319" rx="26" stroke="#EFB546" stroke-width="8"/>
<path d="M156.151 83.2593C156.151 116.45 130.479 143.12 99.0967 143.12C67.7142 143.12 42.0425 116.45 42.0425 83.2593C42.0425 50.0687 67.7142 23.3989 99.0967 23.3989C130.479 23.3989 156.151 50.0687 156.151 83.2593Z" stroke="#EFB546" stroke-width="6"/>
<path d="M97.8401 156.224L74.8733 113.711C74.1534 112.379 75.1184 110.761 76.6329 110.761H121.101C122.591 110.761 123.558 112.333 122.885 113.663L101.385 156.176C100.656 157.618 98.6077 157.645 97.8401 156.224Z" fill="#161616" stroke="#EFB546" stroke-width="5" stroke-linecap="round"/>
<path d="M37.359 441.339L3.64883 467.558C2.75003 468.257 2.61539 469.564 3.35284 470.432L10.3227 478.632C11.0074 479.437 12.2008 479.571 13.0466 478.937L47.4615 453.125" stroke="#EFB546" stroke-width="5" stroke-linecap="round"/>
<path d="M47.9743 445.293L43.5204 438.983C42.9005 438.105 43.0856 436.894 43.9394 436.241L60.955 423.229C61.3038 422.962 61.7308 422.818 62.1699 422.818H76.1194C78.0553 422.818 78.8618 425.294 77.2973 426.434L50.7862 445.756C49.884 446.413 48.6181 446.205 47.9743 445.293Z" stroke="#EFB546" stroke-width="5" stroke-linecap="round"/>
<path d="M47.7484 455.881L34.0737 438.906C33.4006 438.07 33.5067 436.852 34.3142 436.146L35.7644 434.877C36.6298 434.12 37.9541 434.246 38.6601 435.154L51.9903 452.293C52.6095 453.089 52.539 454.222 51.8258 454.935L50.7201 456.041C49.8791 456.882 48.4945 456.807 47.7484 455.881Z" fill="#EFB546" stroke="#EFB546" stroke-width="5" stroke-linecap="round"/>
<path d="M163.641 441.339L197.351 467.558C198.25 468.257 198.385 469.564 197.647 470.432L190.677 478.632C189.993 479.437 188.799 479.571 187.953 478.937L153.538 453.125" stroke="#EFB546" stroke-width="5" stroke-linecap="round"/>
<path d="M153.026 445.293L157.48 438.983C158.099 438.105 157.914 436.894 157.061 436.241L140.045 423.229C139.696 422.962 139.269 422.818 138.83 422.818H124.881C122.945 422.818 122.138 425.294 123.703 426.434L150.214 445.756C151.116 446.413 152.382 446.205 153.026 445.293Z" stroke="#EFB546" stroke-width="5" stroke-linecap="round"/>
<path d="M153.252 455.881L166.926 438.906C167.599 438.07 167.493 436.852 166.686 436.146L165.236 434.877C164.37 434.12 163.046 434.246 162.34 435.154L149.01 452.293C148.39 453.089 148.461 454.222 149.174 454.935L150.28 456.041C151.121 456.882 152.506 456.807 153.252 455.881Z" fill="#EFB546" stroke="#EFB546" stroke-width="5" stroke-linecap="round"/>
<path d="M41.8489 524.966C25.0113 517.108 27.2564 498.026 47.4614 498.026M158.029 524.966C170.376 518.231 168.131 494.097 151.855 498.026" stroke="#EFB546" stroke-width="5" stroke-linecap="round"/>
<path d="M83.9431 582.214L70.8132 597.461C69.1386 599.406 70.5202 602.419 73.0865 602.419H117.792C120.264 602.419 121.675 599.596 120.192 597.619L108.638 582.214" stroke="#EFB546" stroke-width="5" stroke-linecap="round"/>
<path d="M46.9005 542.365L76.647 559.764L97.4133 542.365L124.915 559.764L150.732 542.365" stroke="#EFB546" stroke-width="5" stroke-linecap="round"/>
<path d="M85.0654 464.912V423.379H114.812V464.912" stroke="#EFB546" stroke-width="5" stroke-linecap="round"/>
<path d="M156.151 522.16C156.151 488.969 130.479 462.299 99.0967 462.299C67.7142 462.299 42.0425 488.969 42.0425 522.16C42.0425 555.35 67.7142 582.02 99.0967 582.02C130.479 582.02 156.151 555.35 156.151 522.16Z" stroke="#EFB546" stroke-width="6"/>
<path d="M97.8401 449.194L74.8733 491.707C74.1534 493.04 75.1184 494.658 76.6329 494.658H121.101C122.591 494.658 123.558 493.086 122.885 491.755L101.385 449.242C100.656 447.801 98.6077 447.774 97.8401 449.194Z" fill="#161616" stroke="#EFB546" stroke-width="5" stroke-linecap="round"/>
<path d="M27.0078 305.135H168.889" stroke="#EFB546" stroke-width="8" stroke-linecap="round"/>
</svg>
