<svg width="414" height="407" viewBox="0 0 414 407" fill="none" xmlns="http://www.w3.org/2000/svg">
<path d="M189.5 165.894L194.411 164.953L193.729 161.393L190.133 160.934L189.5 165.894ZM214.612 216.89L210.987 220.333L210.987 220.333L214.612 216.89ZM130 132.894V127.894H118.892L126.257 136.209L130 132.894ZM155.5 132.894V137.894H165.131L159.589 130.017L155.5 132.894ZM147 18.894L151.04 21.8398L152.956 19.2122L151.331 16.3953L147 18.894ZM139.5 5.89395L139.239 0.900761L131.092 1.32642L135.169 8.39256L139.5 5.89395ZM194.5 14.394L189.534 13.8135L188.979 18.5628L193.699 19.3293L194.5 14.394ZM203 29.894L202.404 24.9296L199.635 25.2619L198.463 27.793L203 29.894ZM206 46.394L201.85 49.1822L202.402 50.0046L203.226 50.5542L206 46.394ZM220.167 100.014L215.17 99.8428L220.167 100.014ZM222 224.894L218.242 228.192L227.938 239.24L226.99 224.571L222 224.894ZM217 45.894V40.894H206.101L213.21 49.1553L217 45.894ZM406.5 45.894L411.32 47.2226L413.065 40.894H406.5V45.894ZM225.5 80.894L220.525 80.3955L219.974 85.894H225.5V80.894ZM374.023 80.4762L375.38 85.2886L375.38 85.2886L374.023 80.4762ZM226.5 89.394V84.394H221.5V89.394H226.5ZM226.5 107.394H221.5V111.675L225.73 112.334L226.5 107.394ZM375 89.394L379.941 90.1567L380.831 84.394H375V89.394ZM352.584 118.937L355.309 123.129L355.309 123.129L352.584 118.937ZM329.751 123.485L328.981 128.425L328.981 128.425L329.751 123.485ZM227.5 135.894H222.5V139.677L226.141 140.706L227.5 135.894ZM227.5 116.894L228.181 111.941L222.5 111.159V116.894H227.5ZM283.415 151.687L284.774 146.875L284.774 146.875L283.415 151.687ZM302.644 151.927L300.995 147.206L300.995 147.206L302.644 151.927ZM322 129.894L326.719 131.546L328.739 125.774L322.681 124.941L322 129.894ZM226.5 145.894L227.812 141.069L221.5 139.353V145.894H226.5ZM226.5 168.894H221.5V171.997L224.281 173.375L226.5 168.894ZM283.5 161.394L287.787 163.968L291.188 158.303L284.812 156.569L283.5 161.394ZM184.589 166.834C187.595 182.531 191.23 192.91 195.728 200.971C200.225 209.031 205.452 214.506 210.987 220.333L218.238 213.447C212.65 207.564 208.266 202.919 204.461 196.098C200.655 189.278 197.295 180.014 194.411 164.953L184.589 166.834ZM126.257 136.209C135.568 146.722 143.659 154.538 153.333 160.138C163.065 165.771 174.042 168.961 188.867 170.854L190.133 160.934C176.11 159.144 166.545 156.231 158.343 151.483C150.083 146.702 142.848 139.859 133.743 129.579L126.257 136.209ZM155.5 127.894H130V137.894H155.5V127.894ZM142.96 15.9481C133.22 29.3053 129.419 50.7536 130.798 72.5596C132.187 94.5239 138.891 117.975 151.411 135.771L159.589 130.017C148.377 114.079 142.081 92.5306 140.778 71.9284C139.465 51.1676 143.28 32.4826 151.04 21.8398L142.96 15.9481ZM135.169 8.39256L142.669 21.3926L151.331 16.3953L143.831 3.39534L135.169 8.39256ZM199.466 14.9744C199.801 12.1093 199.474 8.636 196.697 5.76991C194.24 3.23477 190.566 1.95849 186.37 1.20017C177.873 -0.335484 163.297 -0.356234 139.239 0.900761L139.761 10.8871C164.026 9.61931 177.429 9.74632 184.591 11.0407C188.225 11.6975 189.3 12.5068 189.516 12.7291C189.548 12.7624 189.533 12.7404 189.539 12.7666C189.562 12.858 189.61 13.158 189.534 13.8135L199.466 14.9744ZM203 29.894C203.596 34.8584 203.597 34.8582 203.598 34.8581C203.599 34.858 203.6 34.8579 203.601 34.8577C203.604 34.8574 203.607 34.857 203.611 34.8565C203.619 34.8555 203.631 34.8541 203.645 34.8524C203.673 34.8489 203.713 34.844 203.764 34.8376C203.866 34.8248 204.013 34.8061 204.199 34.7816C204.571 34.7327 205.103 34.6604 205.755 34.5653C207.057 34.3757 208.852 34.0932 210.824 33.7216C214.543 33.021 219.656 31.8722 222.988 30.1461C223.864 29.6918 224.874 29.0711 225.745 28.2201C226.606 27.3794 227.695 25.9475 227.877 23.9204C228.07 21.7776 227.159 20.0555 226.162 18.9117C225.219 17.8315 224.02 17.0335 222.871 16.4176C218.488 14.0661 209.829 11.8178 195.301 9.4586L193.699 19.3293C208.421 21.7201 215.45 23.7843 218.144 25.2298C218.766 25.563 218.797 25.6821 218.626 25.4854C218.399 25.2251 217.798 24.3531 217.918 23.0258C218.026 21.8141 218.659 21.1629 218.757 21.0671C218.866 20.961 218.808 21.0493 218.387 21.2669C216.532 22.2283 212.801 23.1732 208.973 23.8945C207.171 24.2339 205.518 24.4943 204.313 24.6699C203.712 24.7575 203.227 24.8234 202.896 24.8669C202.73 24.8887 202.603 24.9049 202.519 24.9154C202.478 24.9206 202.447 24.9244 202.427 24.9268C202.418 24.928 202.411 24.9288 202.407 24.9293C202.405 24.9295 202.404 24.9297 202.403 24.9297C202.403 24.9297 202.403 24.9297 202.403 24.9297C202.404 24.9297 202.404 24.9296 203 29.894ZM210.15 43.6058C207.926 40.2945 206.964 38.4174 206.635 36.9154C206.376 35.7377 206.424 34.3998 207.537 31.995L198.463 27.793C196.7 31.6004 196.02 35.1969 196.867 39.0583C197.643 42.5954 199.619 45.8621 201.85 49.1822L210.15 43.6058ZM225.164 100.185C225.74 83.3716 226.178 71.7783 224.273 63.1832C223.275 58.6797 221.615 54.8278 218.963 51.332C216.352 47.8889 212.946 45.0152 208.774 42.2337L203.226 50.5542C206.878 52.9885 209.302 55.1416 210.996 57.3758C212.651 59.5573 213.776 62.0331 214.51 65.3471C216.07 72.387 215.768 82.388 215.17 99.8428L225.164 100.185ZM226.99 224.571C223.01 162.996 224.315 124.973 225.164 100.185L215.17 99.8428C214.315 124.781 213.001 163.173 217.01 225.216L226.99 224.571ZM210.987 220.333C213.32 222.79 215.716 225.313 218.242 228.192L225.758 221.596C223.084 218.549 220.56 215.892 218.238 213.447L210.987 220.333ZM217 50.894H406.5V40.894H217V50.894ZM230.475 81.3925C231.479 71.3771 231.325 64.1143 229.664 58.0374C227.962 51.8109 224.806 47.2992 220.79 42.6326L213.21 49.1553C216.804 53.332 218.881 56.5143 220.018 60.6739C221.195 64.9833 221.486 70.7988 220.525 80.3955L230.475 81.3925ZM370.927 75.894H225.5V85.894H370.927V75.894ZM372.667 75.6639C372.135 75.8139 371.546 75.894 370.927 75.894V85.894C372.396 85.894 373.902 85.7054 375.38 85.2886L372.667 75.6639ZM401.68 44.5653C398.9 54.6505 396.057 60.9456 391.972 65.4171C387.957 69.8122 382.262 72.9583 372.667 75.6639L375.38 85.2886C385.871 82.3306 393.574 78.4901 399.355 72.1621C405.067 65.9106 408.419 57.7463 411.32 47.2226L401.68 44.5653ZM221.5 89.394V107.394H231.5V89.394H221.5ZM375 84.394H226.5V94.394H375V84.394ZM355.309 123.129C363.691 117.68 369.431 112.9 373.286 107.617C377.24 102.199 378.943 96.6267 379.941 90.1567L370.059 88.6313C369.204 94.1664 367.899 98.0353 365.208 101.722C362.419 105.544 357.877 109.533 349.859 114.745L355.309 123.129ZM328.981 128.425C337.97 129.826 347.429 128.252 355.309 123.129L349.859 114.745C344.29 118.365 337.381 119.614 330.521 118.545L328.981 128.425ZM225.73 112.334L328.981 128.425L330.521 118.545L227.27 102.454L225.73 112.334ZM232.5 135.894V116.894H222.5V135.894H232.5ZM284.774 146.875L228.859 131.082L226.141 140.706L282.056 156.498L284.774 146.875ZM300.995 147.206C296.158 148.896 290.558 148.509 284.774 146.875L282.056 156.498C288.877 158.425 296.763 159.277 304.292 156.647L300.995 147.206ZM317.281 128.242C315.121 134.413 312.967 138.396 310.509 141.18C308.129 143.876 305.211 145.734 300.995 147.206L304.292 156.647C309.761 154.737 314.259 152.042 318.006 147.798C321.673 143.644 324.355 138.302 326.719 131.546L317.281 128.242ZM226.819 121.847L321.319 134.847L322.681 124.941L228.181 111.941L226.819 121.847ZM221.5 145.894V168.894H231.5V145.894H221.5ZM284.812 156.569L227.812 141.069L225.188 150.719L282.188 166.219L284.812 156.569ZM224.281 173.375C240.734 181.522 253.154 185.542 263.439 183.955C274.299 182.28 281.363 174.667 287.787 163.968L279.213 158.82C273.212 168.817 268.225 173.099 261.915 174.072C255.03 175.134 245.163 172.556 228.719 164.413L224.281 173.375Z" fill="#EFB546"/>
<path d="M224 241L219.089 241.941L219.771 245.501L223.367 245.96L224 241ZM198.888 190.004L202.513 186.561L202.513 186.561L198.888 190.004ZM283.5 274V279H294.608L287.243 270.685L283.5 274ZM258 274V269H248.369L253.911 276.877L258 274ZM266.5 388L262.46 385.054L260.544 387.682L262.169 390.499L266.5 388ZM274 401L274.261 405.993L282.408 405.568L278.331 398.501L274 401ZM219 392.5L223.966 393.08L224.521 388.331L219.801 387.565L219 392.5ZM210.5 377L211.096 381.964L213.865 381.632L215.037 379.101L210.5 377ZM207.5 360.5L211.65 357.712L211.098 356.889L210.274 356.34L207.5 360.5ZM193.333 306.88L198.33 307.051L193.333 306.88ZM191.5 182L195.258 178.702L185.562 167.654L186.51 182.322L191.5 182ZM196.5 361V366H207.399L200.29 357.739L196.5 361ZM7 361L2.17976 359.671L0.435331 366H7V361ZM188 326L192.975 326.498L193.526 321H188V326ZM39.4765 326.418L38.1196 321.605L38.1196 321.605L39.4765 326.418ZM187 317.5V322.5H192V317.5H187ZM187 299.5H192V295.219L187.77 294.56L187 299.5ZM38.5 317.5L33.5585 316.737L32.6691 322.5H38.5V317.5ZM60.9159 287.957L58.1907 283.765L58.1907 283.765L60.9159 287.957ZM83.749 283.409L84.5189 278.469L84.5189 278.469L83.749 283.409ZM186 271H191V267.217L187.359 266.188L186 271ZM186 290L185.319 294.953L191 295.735V290H186ZM130.085 255.207L128.726 260.019L128.726 260.019L130.085 255.207ZM110.856 254.967L112.505 259.688L112.505 259.688L110.856 254.967ZM91.5 277L86.7806 275.348L84.7608 281.12L90.8186 281.953L91.5 277ZM187 261L185.688 265.825L192 267.541V261H187ZM187 238H192V234.897L189.219 233.519L187 238ZM130 245.5L125.713 242.926L122.312 248.591L128.688 250.325L130 245.5ZM228.911 240.06C225.905 224.363 222.27 213.984 217.772 205.923C213.275 197.863 208.048 192.388 202.513 186.561L195.262 193.447C200.85 199.33 205.234 203.975 209.039 210.796C212.845 217.616 216.205 226.88 219.089 241.941L228.911 240.06ZM287.243 270.685C277.932 260.172 269.841 252.356 260.167 246.756C250.435 241.123 239.458 237.933 224.633 236.04L223.367 245.96C237.39 247.75 246.955 250.663 255.157 255.411C263.417 260.192 270.652 267.035 279.757 277.315L287.243 270.685ZM258 279H283.5V269H258V279ZM270.54 390.946C280.28 377.589 284.081 356.14 282.702 334.334C281.313 312.37 274.609 288.919 262.089 271.123L253.911 276.877C265.123 292.815 271.419 314.363 272.722 334.966C274.035 355.726 270.22 374.411 262.46 385.054L270.54 390.946ZM278.331 398.501L270.831 385.501L262.169 390.499L269.669 403.499L278.331 398.501ZM214.034 391.92C213.699 394.785 214.026 398.258 216.803 401.124C219.26 403.659 222.934 404.935 227.13 405.694C235.627 407.229 250.203 407.25 274.261 405.993L273.739 396.007C249.474 397.275 236.071 397.148 228.909 395.853C225.275 395.197 224.2 394.387 223.984 394.165C223.952 394.132 223.967 394.154 223.961 394.127C223.938 394.036 223.89 393.736 223.966 393.08L214.034 391.92ZM210.5 377C209.904 372.036 209.903 372.036 209.902 372.036C209.901 372.036 209.9 372.036 209.899 372.036C209.896 372.037 209.893 372.037 209.889 372.037C209.881 372.038 209.869 372.04 209.855 372.042C209.827 372.045 209.787 372.05 209.736 372.056C209.634 372.069 209.487 372.088 209.301 372.112C208.929 372.161 208.397 372.234 207.745 372.329C206.443 372.518 204.648 372.801 202.676 373.172C198.957 373.873 193.844 375.022 190.512 376.748C189.636 377.202 188.626 377.823 187.755 378.674C186.894 379.515 185.805 380.946 185.623 382.974C185.43 385.116 186.341 386.838 187.338 387.982C188.281 389.063 189.48 389.86 190.629 390.476C195.012 392.828 203.671 395.076 218.199 397.435L219.801 387.565C205.079 385.174 198.05 383.11 195.356 381.664C194.734 381.331 194.703 381.212 194.874 381.409C195.101 381.669 195.702 382.541 195.582 383.868C195.474 385.08 194.841 385.731 194.743 385.827C194.634 385.933 194.692 385.845 195.113 385.627C196.968 384.666 200.699 383.721 204.527 382.999C206.329 382.66 207.982 382.4 209.187 382.224C209.788 382.137 210.273 382.071 210.604 382.027C210.77 382.005 210.897 381.989 210.981 381.979C211.022 381.973 211.053 381.97 211.073 381.967C211.082 381.966 211.089 381.965 211.093 381.965C211.095 381.964 211.096 381.964 211.097 381.964C211.097 381.964 211.097 381.964 211.097 381.964C211.096 381.964 211.096 381.964 210.5 377ZM203.35 363.288C205.574 366.599 206.536 368.477 206.865 369.979C207.124 371.156 207.076 372.494 205.963 374.899L215.037 379.101C216.8 375.294 217.48 371.697 216.633 367.836C215.857 364.299 213.881 361.032 211.65 357.712L203.35 363.288ZM188.336 306.709C187.76 323.522 187.322 335.116 189.227 343.711C190.225 348.214 191.885 352.066 194.537 355.562C197.148 359.005 200.554 361.879 204.726 364.66L210.274 356.34C206.622 353.905 204.198 351.752 202.504 349.518C200.849 347.337 199.724 344.861 198.99 341.547C197.43 334.507 197.732 324.506 198.33 307.051L188.336 306.709ZM186.51 182.322C190.49 243.898 189.185 281.921 188.336 306.709L198.33 307.051C199.185 282.112 200.499 243.721 196.49 181.678L186.51 182.322ZM202.513 186.561C200.18 184.104 197.784 181.581 195.258 178.702L187.742 185.298C190.416 188.345 192.94 191.002 195.262 193.447L202.513 186.561ZM196.5 356H7V366H196.5V356ZM183.025 325.502C182.021 335.517 182.175 342.78 183.836 348.857C185.538 355.083 188.694 359.595 192.71 364.261L200.29 357.739C196.696 353.562 194.619 350.38 193.482 346.22C192.305 341.911 192.014 336.095 192.975 326.498L183.025 325.502ZM42.5731 331H188V321H42.5731V331ZM40.8335 331.23C41.3654 331.08 41.9536 331 42.5731 331V321C41.1041 321 39.5978 321.189 38.1196 321.605L40.8335 331.23ZM11.8202 362.329C14.6001 352.243 17.4425 345.948 21.5277 341.477C25.5431 337.082 31.2382 333.936 40.8335 331.23L38.1196 321.605C27.6291 324.563 19.9262 328.404 14.1449 334.732C8.43349 340.983 5.0805 349.148 2.17976 359.671L11.8202 362.329ZM192 317.5V299.5H182V317.5H192ZM38.5 322.5H187V312.5H38.5V322.5ZM58.1907 283.765C49.8087 289.214 44.0695 293.994 40.2139 299.277C36.2597 304.695 34.5571 310.267 33.5585 316.737L43.4415 318.263C44.2958 312.728 45.6011 308.859 48.2916 305.172C51.0806 301.35 55.6229 297.361 63.6411 292.149L58.1907 283.765ZM84.5189 278.469C75.5296 277.068 66.0709 278.642 58.1907 283.765L63.6411 292.149C69.2096 288.529 76.1188 287.28 82.9791 288.349L84.5189 278.469ZM187.77 294.56L84.5189 278.469L82.9791 288.349L186.23 304.44L187.77 294.56ZM181 271V290H191V271H181ZM128.726 260.019L184.641 275.812L187.359 266.188L131.444 250.396L128.726 260.019ZM112.505 259.688C117.342 257.998 122.942 258.385 128.726 260.019L131.444 250.396C124.623 248.469 116.737 247.617 109.208 250.247L112.505 259.688ZM96.2194 278.652C98.3788 272.481 100.533 268.498 102.991 265.714C105.371 263.018 108.289 261.16 112.505 259.688L109.208 250.247C103.739 252.157 99.2405 254.852 95.4945 259.096C91.8266 263.25 89.145 268.592 86.7806 275.348L96.2194 278.652ZM186.681 285.047L92.1814 272.047L90.8186 281.953L185.319 294.953L186.681 285.047ZM192 261V238H182V261H192ZM128.688 250.325L185.688 265.825L188.312 256.175L131.312 240.675L128.688 250.325ZM189.219 233.519C172.766 225.372 160.346 221.352 150.061 222.939C139.201 224.614 132.137 232.227 125.713 242.926L134.287 248.074C140.288 238.077 145.275 233.795 151.585 232.822C158.47 231.76 168.337 234.338 184.781 242.481L189.219 233.519Z" fill="#EFB546"/>
</svg>
