<svg width="395" height="507" viewBox="0 0 395 507" fill="none" xmlns="http://www.w3.org/2000/svg">
<path d="M124.5 87.5C124.677 201.853 264.172 238.796 273.5 87.5" stroke="#EFB546" stroke-width="6" stroke-linecap="round"/>
<path d="M134.6 202.361C101.211 206.433 92.7452 217.822 91 250H308C305.835 220.01 299.98 206.898 265.903 202.361L279.666 151.547C280.462 148.606 277.799 145.891 274.835 146.593C219.651 159.656 184.999 161.269 125.291 146.684C122.3 145.954 119.6 148.706 120.429 151.671L134.6 202.361Z" fill="#161616" stroke="#EFB546" stroke-width="10"/>
<path d="M270.122 90.9653C213.496 103.16 181.828 98.4829 128.381 90.5741C126.768 90.3353 125.549 92.0226 126.3 93.4706L130.179 100.952C131.051 102.633 131.544 104.495 131.803 106.371C136.676 141.769 180.797 144.241 190.562 108.392C191.691 104.246 195.228 101 199.525 101C203.801 101 207.333 104.217 208.437 108.348C218.345 145.427 261.668 141.491 266.667 106.568C266.954 104.564 267.509 102.583 268.493 100.813L272.331 93.905C273.17 92.3946 271.811 90.6015 270.122 90.9653Z" fill="#EFB546"/>
<path d="M275 84H122C117.582 84 114 80.4183 114 76V70.543C114 66.1248 117.582 62.543 122 62.543H127.437C131.855 62.543 135.437 58.9613 135.437 54.543V11C135.437 6.58172 139.018 3 143.437 3H254.062C258.48 3 262.062 6.58172 262.062 11V54.5431C262.062 58.9613 265.644 62.543 270.062 62.543H275C279.418 62.543 283 66.1248 283 70.543V76C283 80.4183 279.418 84 275 84Z" stroke="#EFB546" stroke-width="6"/>
<path d="M124.5 419.5C124.677 305.147 264.172 268.204 273.5 419.5" stroke="#EFB546" stroke-width="6" stroke-linecap="round"/>
<path d="M134.6 304.639C101.211 300.567 92.7452 289.178 91 257H308C305.835 286.99 299.98 300.102 265.903 304.639L279.666 355.453C280.462 358.394 277.799 361.109 274.835 360.407C219.651 347.344 184.999 345.731 125.291 360.316C122.3 361.046 119.6 358.294 120.429 355.329L134.6 304.639Z" fill="#161616" stroke="#EFB546" stroke-width="10"/>
<path d="M270.122 416.035C213.496 403.84 181.828 408.517 128.381 416.426C126.768 416.665 125.549 414.977 126.3 413.529L130.179 406.048C131.051 404.367 131.544 402.505 131.803 400.629C136.676 365.231 180.797 362.759 190.562 398.608C191.691 402.754 195.228 406 199.525 406C203.801 406 207.333 402.783 208.437 398.652C218.345 361.573 261.668 365.509 266.667 400.432C266.954 402.436 267.509 404.417 268.493 406.187L272.331 413.095C273.17 414.605 271.811 416.398 270.122 416.035Z" fill="#EFB546"/>
<path d="M275 423H122C117.582 423 114 426.582 114 431V436.457C114 440.875 117.582 444.457 122 444.457H127.437C131.855 444.457 135.437 448.039 135.437 452.457V496C135.437 500.418 139.018 504 143.437 504H254.062C258.48 504 262.062 500.418 262.062 496V452.457C262.062 448.039 265.644 444.457 270.062 444.457H275C279.418 444.457 283 440.875 283 436.457V431C283 426.582 279.418 423 275 423Z" stroke="#EFB546" stroke-width="6"/>
<path d="M306.767 126.475L334.459 86.0746" stroke="#EFB546" stroke-width="12" stroke-linecap="round"/>
<circle cx="349.19" cy="63.0789" r="25" transform="rotate(1.52101 349.19 63.0789)" stroke="#EFB546" stroke-width="9"/>
<path d="M87.8942 345.157L60.2029 385.558" stroke="#EFB546" stroke-width="12" stroke-linecap="round"/>
<circle cx="45.4721" cy="408.553" r="25" transform="rotate(-178.479 45.4721 408.553)" stroke="#EFB546" stroke-width="9"/>
<path d="M124.5 87.5C124.677 201.853 264.172 238.796 273.5 87.5" stroke="#EFB546" stroke-width="6" stroke-linecap="round"/>
<path d="M134.6 202.361C101.211 206.433 92.7452 217.822 91 250H308C305.835 220.01 299.98 206.898 265.903 202.361L279.666 151.547C280.462 148.606 277.799 145.891 274.835 146.593C219.651 159.656 184.999 161.269 125.291 146.684C122.3 145.954 119.6 148.706 120.429 151.671L134.6 202.361Z" fill="#EFB546" stroke="#EFB546" stroke-width="10"/>
<path d="M270.122 90.9653C213.496 103.16 181.828 98.4829 128.381 90.5741C126.768 90.3353 125.549 92.0226 126.3 93.4706L130.179 100.952C131.051 102.633 131.544 104.495 131.803 106.371C136.676 141.769 180.797 144.241 190.562 108.392C191.691 104.246 195.228 101 199.525 101C203.801 101 207.333 104.217 208.437 108.348C218.345 145.427 261.668 141.491 266.667 106.568C266.954 104.564 267.509 102.583 268.493 100.813L272.331 93.905C273.17 92.3946 271.811 90.6015 270.122 90.9653Z" fill="#EFB546"/>
<path d="M275 84H122C117.582 84 114 80.4183 114 76V70.543C114 66.1248 117.582 62.543 122 62.543H127.437C131.855 62.543 135.437 58.9613 135.437 54.543V11C135.437 6.58172 139.018 3 143.437 3H254.062C258.48 3 262.062 6.58172 262.062 11V54.5431C262.062 58.9613 265.644 62.543 270.062 62.543H275C279.418 62.543 283 66.1248 283 70.543V76C283 80.4183 279.418 84 275 84Z" fill="#EFB546" stroke="#EFB546" stroke-width="6"/>
</svg>
